<svg width="24" height="24" viewBox="0 0 24 24" fill="none" xmlns="http://www.w3.org/2000/svg">
<path d="M13.0735 12L16.3135 8.76001C16.4227 8.63247 16.4797 8.46842 16.4733 8.30064C16.4668 8.13285 16.3972 7.97369 16.2785 7.85496C16.1598 7.73623 16.0006 7.66668 15.8328 7.6602C15.665 7.65372 15.501 7.71079 15.3735 7.82001L12.1335 11.0267L8.87345 7.76667C8.74592 7.65746 8.58187 7.60039 8.41408 7.60687C8.2463 7.61335 8.08714 7.6829 7.96841 7.80163C7.84968 7.92036 7.78013 8.07952 7.77365 8.2473C7.76716 8.41509 7.82423 8.57914 7.93345 8.70667L11.1868 12L8.00012 15.1467C7.93033 15.2064 7.87365 15.28 7.83364 15.3627C7.79362 15.4454 7.77113 15.5355 7.76759 15.6273C7.76404 15.7191 7.77951 15.8107 7.81303 15.8962C7.84654 15.9818 7.89738 16.0595 7.96235 16.1244C8.02732 16.1894 8.10502 16.2402 8.19057 16.2738C8.27612 16.3073 8.36768 16.3228 8.45949 16.3192C8.5513 16.3157 8.64139 16.2932 8.7241 16.2532C8.80681 16.2131 8.88035 16.1565 8.94012 16.0867L12.1201 12.9067L15.2801 16.0667C15.4077 16.1759 15.5717 16.233 15.7395 16.2265C15.9073 16.22 16.0664 16.1504 16.1852 16.0317C16.3039 15.913 16.3734 15.7538 16.3799 15.586C16.3864 15.4183 16.3293 15.2542 16.2201 15.1267L13.0735 12Z" fill="#E3D6D5"/>
<path d="M11.9999 22.6667C9.89026 22.6667 7.82797 22.0411 6.07384 20.869C4.31972 19.6969 2.95254 18.031 2.14521 16.082C1.33787 14.1329 1.12664 11.9882 1.53821 9.91904C1.94979 7.84991 2.96569 5.94929 4.45745 4.45753C5.94921 2.96577 7.84983 1.94987 9.91896 1.53829C11.9881 1.12671 14.1328 1.33795 16.0819 2.14528C18.031 2.95262 19.6969 4.31979 20.8689 6.07392C22.041 7.82804 22.6666 9.89033 22.6666 12C22.6666 14.829 21.5428 17.5421 19.5424 19.5425C17.542 21.5429 14.8289 22.6667 11.9999 22.6667V22.6667ZM11.9999 2.66667C10.154 2.66667 8.34946 3.21406 6.8146 4.23962C5.27974 5.26518 4.08347 6.72284 3.37705 8.42829C2.67063 10.1337 2.4858 12.0104 2.84593 13.8208C3.20606 15.6313 4.09497 17.2944 5.40026 18.5997C6.70555 19.905 8.36859 20.7939 10.1791 21.154C11.9896 21.5141 13.8662 21.3293 15.5716 20.6229C17.2771 19.9165 18.7347 18.7202 19.7603 17.1853C20.7859 15.6505 21.3333 13.846 21.3333 12C21.3333 9.52465 20.3499 7.15068 18.5996 5.40034C16.8492 3.65 14.4753 2.66667 11.9999 2.66667V2.66667Z" fill="#E3D6D5"/>
</svg>
